<svg width="20" height="20" viewBox="0 0 20 20" fill="none" xmlns="http://www.w3.org/2000/svg">
<path fill-rule="evenodd" clip-rule="evenodd" d="M9.79004 0.833984C12.1842 0.833984 14.4342 1.76482 16.1242 3.45565C19.6175 6.94898 19.6175 12.6323 16.1242 16.1257C14.4117 17.839 12.1059 18.7457 9.77004 18.7457C8.49671 18.7457 7.21504 18.4765 6.01587 17.9215C5.66254 17.7798 5.33171 17.6465 5.09421 17.6465C4.82087 17.6482 4.45337 17.7748 4.09837 17.8973C3.37004 18.1473 2.46337 18.459 1.79254 17.7907C1.12421 17.1215 1.43254 16.2173 1.68087 15.4898C1.80337 15.1315 1.92921 14.7615 1.92921 14.4815C1.92921 14.2515 1.81837 13.9582 1.64837 13.5357C0.0875387 10.1648 0.809205 6.10232 3.45671 3.45648C5.14671 1.76565 7.39587 0.833984 9.79004 0.833984ZM9.79087 2.08398C7.73004 2.08398 5.79421 2.88565 4.34004 4.34065C2.06171 6.61732 1.44171 10.1132 2.79587 13.0407C2.99087 13.5232 3.17921 13.9932 3.17921 14.4815C3.17921 14.969 3.01171 15.4598 2.86421 15.8932C2.74254 16.2498 2.55837 16.7882 2.67671 16.9065C2.79254 17.0265 3.33421 16.8373 3.69171 16.7148C4.12087 16.5682 4.60754 16.3998 5.09004 16.3965C5.57337 16.3965 6.02921 16.5798 6.51171 16.774C9.46754 18.1407 12.9634 17.519 15.2409 15.2423C18.2459 12.2357 18.2459 7.34482 15.2409 4.33982C13.7859 2.88482 11.8509 2.08398 9.79087 2.08398ZM13.08 9.3029C13.54 9.3029 13.9133 9.6754 13.9133 10.1362C13.9133 10.5971 13.54 10.9696 13.08 10.9696C12.62 10.9696 12.2433 10.5971 12.2433 10.1362C12.2433 9.6754 12.6125 9.3029 13.0725 9.3029H13.08ZM9.73929 9.3029C10.1993 9.3029 10.5726 9.6754 10.5726 10.1362C10.5726 10.5971 10.1993 10.9696 9.73929 10.9696C9.27929 10.9696 8.90262 10.5971 8.90262 10.1362C8.90262 9.6754 9.27096 9.3029 9.73179 9.3029H9.73929ZM6.39829 9.3029C6.85829 9.3029 7.23162 9.6754 7.23162 10.1362C7.23162 10.5971 6.85829 10.9696 6.39829 10.9696C5.93829 10.9696 5.56162 10.5971 5.56162 10.1362C5.56162 9.6754 5.93079 9.3029 6.39079 9.3029H6.39829Z" fill="white"/>
</svg>
