<svg width="15" height="14" viewBox="0 0 15 14" fill="none" xmlns="http://www.w3.org/2000/svg">
<path d="M3.8843 7.73313H2.64939C2.65069 7.79649 2.62736 7.85787 2.5843 7.90437C2.54125 7.95087 2.48184 7.97885 2.41857 7.98242H0.177275V2.10797C0.176362 1.99854 0.197012 1.89 0.238046 1.78856C0.279081 1.68711 0.339696 1.59474 0.41643 1.51672C0.493164 1.4387 0.584515 1.37656 0.685266 1.33384C0.786017 1.29113 0.894195 1.26868 1.00362 1.26777H2.41857C2.48163 1.2719 2.54072 1.30005 2.58365 1.34642C2.62659 1.3928 2.65012 1.45386 2.64939 1.51706H3.87507C3.92023 1.51736 3.96489 1.52656 4.00651 1.54412C4.04812 1.56168 4.08586 1.58727 4.11758 1.61942C4.14931 1.65157 4.17439 1.68966 4.19139 1.7315C4.20839 1.77335 4.21699 1.81813 4.21668 1.86329V7.38921C4.21673 7.47846 4.18209 7.56423 4.12006 7.62841C4.05804 7.69258 3.9735 7.73014 3.8843 7.73313ZM1.6984 2.22107C1.69871 2.18379 1.69166 2.14681 1.67768 2.11225C1.66369 2.07768 1.64303 2.04621 1.61688 2.01964C1.59073 1.99306 1.5596 1.97189 1.52527 1.95734C1.49094 1.94279 1.45408 1.93515 1.4168 1.93485C1.34169 1.93606 1.27007 1.96675 1.21739 2.0203C1.1647 2.07384 1.13518 2.14595 1.13519 2.22107V2.84429C1.13756 2.9178 1.16812 2.98758 1.22056 3.03915C1.27299 3.09072 1.34326 3.12013 1.4168 3.12128C1.49051 3.1207 1.56111 3.09148 1.61366 3.03979C1.66622 2.98809 1.69661 2.91799 1.6984 2.84429V2.22107Z" fill="white" fill-opacity="0.8"/>
<path d="M11.0606 11.5661C11.0606 10.4582 10.3912 9.83497 10.2019 9.09403H12.8217C13.225 9.08988 13.6107 8.92865 13.8969 8.6446C14.1831 8.36055 14.3472 7.97607 14.3544 7.5729C14.354 7.09723 14.1762 6.6388 13.8558 6.28721C13.9914 5.94872 14.0413 5.58197 14.0011 5.21955C13.9608 4.85713 13.8316 4.51027 13.625 4.2098C13.7229 3.87414 13.7355 3.51938 13.6618 3.1776C13.588 2.83583 13.4302 2.51785 13.2026 2.25242C13.2619 2.05665 13.2777 1.8503 13.249 1.64777C13.2203 1.44525 13.1478 1.25143 13.0364 1.07984C12.5078 0.306581 11.2037 0.306581 10.1026 0.306581H10.0357C8.79388 0.306581 7.77595 0.768227 6.95883 1.13754C6.54797 1.3222 6.01015 1.55303 5.60159 1.55995C5.52015 1.56236 5.4429 1.59657 5.38638 1.65525C5.32986 1.71392 5.29857 1.7924 5.29921 1.87387V7.4621C5.29794 7.50486 5.30548 7.54741 5.32136 7.58712C5.33724 7.62683 5.36113 7.66285 5.39154 7.69293C6.40947 8.71778 6.84804 9.80035 7.68592 10.6521C8.05986 11.0329 8.18912 11.6169 8.33223 12.1871C8.44533 12.6695 8.68539 13.6943 9.20474 13.6943C9.82335 13.6943 11.0606 13.4889 11.0606 11.5661Z" fill="white" fill-opacity="0.8"/>
</svg>
