<svg width="20" height="20" viewBox="0 0 20 20" fill="none" xmlns="http://www.w3.org/2000/svg">
<path fill-rule="evenodd" clip-rule="evenodd" d="M7.96518 17.8802C4.90518 17.8802 2.29102 17.4177 2.29102 15.5643C2.29102 13.711 4.88852 12.041 7.96518 12.041C11.0252 12.041 13.6385 13.6952 13.6385 15.5477C13.6385 17.4002 11.0418 17.8802 7.96518 17.8802Z" stroke="white" stroke-width="1.25" stroke-linecap="round" stroke-linejoin="round"/>
<path fill-rule="evenodd" clip-rule="evenodd" d="M7.96531 9.39837C9.97363 9.39837 11.602 7.77 11.602 5.76167C11.602 3.75333 9.97363 2.125 7.96531 2.125C5.95697 2.125 4.32864 3.75333 4.32864 5.76167C4.32114 7.76333 5.93864 9.3917 7.93947 9.39837H7.96531Z" stroke="white" stroke-width="1.25" stroke-linecap="round" stroke-linejoin="round"/>
<path d="M14.001 8.39726C15.1702 8.08474 16.0319 7.01891 16.0319 5.75057C16.0327 4.42724 15.0935 3.32224 13.8452 3.06641" stroke="white" stroke-width="1.25" stroke-linecap="round" stroke-linejoin="round"/>
<path d="M14.5508 11.3789C16.2074 11.3789 17.6224 12.5022 17.6224 13.5047C17.6224 14.0956 17.1349 14.7022 16.3933 14.8764" stroke="white" stroke-width="1.25" stroke-linecap="round" stroke-linejoin="round"/>
</svg>
