<svg width="101" height="101" viewBox="0 0 101 101" fill="none" xmlns="http://www.w3.org/2000/svg">
<path d="M69.3513 0C62.9205 0 57.3724 4.41327 53.9679 11.0962C59.6421 17.9052 63.0466 27.2361 63.0466 37.9541C63.0466 41.6108 62.6684 44.8892 61.9118 48.1676C64.3076 49.5547 66.7033 50.5634 69.3513 50.5634C79.817 50.5634 88.2653 39.215 88.2653 25.3447C88.2653 11.4745 79.817 0.126093 69.3513 0.126093V0ZM31.5233 12.6093C21.0576 12.6093 12.6093 23.9577 12.6093 37.828C12.6093 51.6982 21.0576 63.0466 31.5233 63.0466C41.9891 63.0466 50.4373 51.6982 50.4373 37.828C50.4373 23.9577 41.9891 12.6093 31.5233 12.6093ZM91.4176 52.4548C85.9956 58.8856 78.5561 62.7945 70.1079 63.0466C73.5124 67.8382 75.656 73.6385 75.656 79.9431V88.2653H100.875V67.3338C100.875 60.777 96.9657 55.1028 91.4176 52.3287V52.4548ZM9.457 65.0641C3.90889 67.8382 0 73.5124 0 80.0692V101.001H63.0466V80.0692C63.0466 73.5124 59.1377 67.8382 53.5896 65.0641C47.9154 71.7471 40.2238 75.656 31.5233 75.656C22.8229 75.656 15.1312 71.621 9.457 65.0641Z" fill="white"/>
</svg>
