<svg width="20" height="20" viewBox="0 0 20 20" fill="none" xmlns="http://www.w3.org/2000/svg">
<path d="M11.8214 2H7.53571C7.31873 2 7.11108 2.00702 6.90792 2.01748C6.87863 2.01251 6.85212 2 6.82143 2C6.75534 2 6.6936 2.01574 6.63514 2.03762C3.4018 2.28926 2 3.972 2 7.53571V11.8214C2 15.3851 3.4018 17.0679 6.63514 17.3195C6.6936 17.3414 6.75534 17.3571 6.82143 17.3571C6.85212 17.3571 6.87863 17.3446 6.90792 17.3397C7.11108 17.3501 7.31873 17.3571 7.53571 17.3571H11.8214C15.7015 17.3571 17.3571 15.7019 17.3571 11.8214V7.53571C17.3571 3.65527 15.7015 2 11.8214 2ZM6.28571 16.2127C3.94153 15.917 3.07143 14.659 3.07143 11.8214V7.53571C3.07143 4.6981 3.94153 3.44017 6.28571 3.14445V16.2127ZM16.2857 11.8214C16.2857 15.1173 15.1173 16.2857 11.8214 16.2857H7.53571C7.47372 16.2857 7.41766 16.2824 7.35714 16.2815V3.07561C7.41766 3.07479 7.47372 3.07143 7.53571 3.07143H11.8214C15.1173 3.07143 16.2857 4.23982 16.2857 7.53571V11.8214ZM12.2002 8.22907L10.7507 9.67857L12.2002 11.1281C12.4095 11.3373 12.4095 11.6763 12.2002 11.8856C12.0956 11.9902 11.9585 12.0425 11.8214 12.0425C11.6844 12.0425 11.5473 11.9902 11.4427 11.8856L9.6144 10.0573C9.40513 9.84807 9.40513 9.50907 9.6144 9.2998L11.4427 7.47154C11.6519 7.26228 11.9909 7.26228 12.2002 7.47154C12.4095 7.6808 12.4095 8.01981 12.2002 8.22907Z" fill="white" fill-opacity="0.8"/>
</svg>
