<svg width="20" height="20" viewBox="0 0 20 20" fill="none" xmlns="http://www.w3.org/2000/svg">
<path d="M8.39551 3.07129C9.02618 2.52871 9.94074 2.47886 10.624 2.93164L10.7568 3.0293L10.7588 3.03027L16.084 7.25195V7.25293C16.3957 7.51174 16.5752 7.89325 16.5752 8.29395V15.2627C16.5751 15.7524 16.4031 16.2253 16.0918 16.6016L15.9502 16.7568C15.5995 17.1041 15.1386 17.3181 14.6484 17.3652L14.4365 17.375H12.8662C12.77 17.375 12.6788 17.3368 12.6123 17.2705C12.5625 17.2207 12.5296 17.1577 12.5166 17.0908L12.5098 17.0234V14.5723C12.5097 14.1636 12.367 13.7702 12.1094 13.458L11.9922 13.3291C11.661 13.0004 11.2124 12.8164 10.7461 12.8164H8.44629C7.47669 12.8167 6.68274 13.5986 6.68262 14.5723V16.5674L6.66504 16.5732L6.66113 17.0215C6.65959 17.2129 6.50177 17.375 6.29785 17.375H4.76465C3.57862 17.3748 2.625 16.4213 2.625 15.2549V8.30859C2.63458 7.90145 2.82779 7.51788 3.1543 7.2666L3.15527 7.26758L3.16406 7.25977L8.37891 3.08594L8.3877 3.07812L8.39551 3.07129Z" stroke="white" stroke-width="1.25"/>
</svg>
