<svg width="20" height="21" viewBox="0 0 20 21" fill="none" xmlns="http://www.w3.org/2000/svg">
<path fill-rule="evenodd" clip-rule="evenodd" d="M17.6753 7.0838V13.8763C17.6753 16.393 16.1003 18.168 13.5837 18.168H6.37533C3.85866 18.168 2.29199 16.393 2.29199 13.8763V7.0838C2.29199 4.56714 3.86699 2.79297 6.37533 2.79297H13.5837C16.1003 2.79297 17.6753 4.56714 17.6753 7.0838Z" stroke="#3395FF" stroke-width="1.25" stroke-linecap="round" stroke-linejoin="round"/>
<path d="M4.40137 14.1929L5.6747 12.8487C6.1172 12.3796 6.8547 12.3571 7.3247 12.7987C7.33887 12.8129 8.10553 13.5921 8.10553 13.5921C8.56803 14.0629 9.32387 14.0704 9.7947 13.6087C9.82553 13.5787 11.7397 11.2571 11.7397 11.2571C12.233 10.6579 13.1189 10.5721 13.7189 11.0662C13.7589 11.0996 15.5672 12.9554 15.5672 12.9554" stroke="#3395FF" stroke-width="1.25" stroke-linecap="round" stroke-linejoin="round"/>
<path fill-rule="evenodd" clip-rule="evenodd" d="M8.59423 8.11206C8.59423 8.91956 7.94007 9.57372 7.13257 9.57372C6.32507 9.57372 5.6709 8.91956 5.6709 8.11206C5.6709 7.30456 6.32507 6.65039 7.13257 6.65039C7.94007 6.65122 8.59423 7.30456 8.59423 8.11206Z" stroke="#3395FF" stroke-width="1.25" stroke-linecap="round" stroke-linejoin="round"/>
</svg>
