<svg width="84" height="24" viewBox="0 0 84 24" fill="none" xmlns="http://www.w3.org/2000/svg">
<path d="M12.3786 3.16547L8.46594 0.906496C8.03077 0.655247 7.81318 0.529623 7.58897 0.456773C7.13848 0.310399 6.65321 0.310399 6.20272 0.456773C5.97851 0.529623 5.76093 0.655248 5.32575 0.906497L2.51216 2.53093L2.51215 2.53093C1.81587 2.93292 1.46773 3.13392 1.18742 3.38632C0.624209 3.89344 0.235996 4.56584 0.0784238 5.30716C0 5.67611 0 6.07811 0 6.88211V10.131C0 10.6335 0 10.8847 0.0490149 11.1153C0.147497 11.5786 0.39013 11.9989 0.742139 12.3158C0.917334 12.4736 1.13492 12.5992 1.5701 12.8505L5.48276 15.1094C5.8345 15.3125 6.01037 15.414 6.15261 15.429C6.44253 15.4595 6.7191 15.2998 6.83767 15.0335C6.89585 14.9028 6.89585 14.6997 6.89585 14.2936V10.8634C6.89585 10.0594 6.89585 9.65743 6.97427 9.28848C7.13184 8.54716 7.52006 7.87476 8.08327 7.36764C8.36358 7.11524 8.71172 6.91424 9.408 6.51225L12.3786 4.79717C12.7303 4.59409 12.9062 4.49255 12.9903 4.37684C13.1616 4.141 13.1616 3.82164 12.9903 3.5858C12.9062 3.47009 12.7303 3.36855 12.3786 3.16547Z" fill="white"/>
<path d="M3.20733 20.8345L7.11999 23.0935C7.55517 23.3448 7.77276 23.4704 7.99697 23.5432C8.44746 23.6896 8.93272 23.6896 9.38321 23.5432C9.60742 23.4704 9.82501 23.3448 10.2602 23.0935L13.0738 21.4691L13.0738 21.4691C13.7701 21.0671 14.1182 20.8661 14.3985 20.6137C14.9617 20.1066 15.3499 19.4342 15.5075 18.6928C15.5859 18.3239 15.5859 17.9219 15.5859 17.1179V13.869C15.5859 13.3665 15.5859 13.1153 15.5369 12.8847C15.4384 12.4214 15.1958 12.0011 14.8438 11.6842C14.6686 11.5264 14.451 11.4008 14.0158 11.1495L10.1032 8.89057C9.75144 8.6875 9.57557 8.58596 9.43333 8.57101C9.14341 8.54053 8.86684 8.70021 8.74827 8.96653C8.69009 9.09719 8.69009 9.30027 8.69009 9.70642V13.1366C8.69009 13.9406 8.69009 14.3426 8.61167 14.7115C8.45409 15.4528 8.06588 16.1252 7.50267 16.6324C7.22236 16.8848 6.87422 17.0858 6.17794 17.4878L3.20733 19.2028C2.85559 19.4059 2.67972 19.5074 2.59565 19.6232C2.4243 19.859 2.4243 20.1784 2.59565 20.4142C2.67972 20.5299 2.85559 20.6315 3.20733 20.8345Z" fill="white"/>
<path d="M37.8254 9.67401C37.7743 9.15838 37.5548 8.75781 37.167 8.4723C36.7792 8.18679 36.253 8.04403 35.5882 8.04403C35.1365 8.04403 34.7551 8.10795 34.444 8.2358C34.1329 8.35938 33.8943 8.53196 33.7281 8.75355C33.5662 8.97514 33.4852 9.22656 33.4852 9.50781C33.4767 9.74219 33.5257 9.94673 33.6322 10.1214C33.743 10.2962 33.8943 10.4474 34.0861 10.5753C34.2778 10.6989 34.4994 10.8075 34.7508 10.9013C35.0023 10.9908 35.2707 11.0675 35.5562 11.1314L36.7324 11.4126C37.3034 11.5405 37.8275 11.7109 38.3048 11.924C38.7821 12.1371 39.1954 12.3991 39.5449 12.7102C39.8943 13.0213 40.1649 13.3878 40.3567 13.8097C40.5527 14.2315 40.6528 14.7152 40.6571 15.2607C40.6528 16.0618 40.4483 16.7564 40.0434 17.3445C39.6429 17.9283 39.0633 18.3821 38.3048 18.706C37.5505 19.0256 36.6407 19.1854 35.5754 19.1854C34.5186 19.1854 33.5981 19.0234 32.814 18.6996C32.0342 18.3757 31.4248 17.8963 30.9859 17.2614C30.5513 16.6222 30.3233 15.8317 30.302 14.8899H32.9802C33.0101 15.3288 33.1358 15.6953 33.3574 15.9893C33.5832 16.2791 33.8836 16.4986 34.2586 16.6477C34.6379 16.7926 35.0662 16.8651 35.5434 16.8651C36.0122 16.8651 36.4192 16.7969 36.7643 16.6605C37.1138 16.5241 37.3844 16.3345 37.5761 16.0916C37.7679 15.8487 37.8638 15.5696 37.8638 15.2543C37.8638 14.9602 37.7764 14.7131 37.6017 14.5128C37.4312 14.3125 37.1798 14.142 36.8474 14.0014C36.5193 13.8608 36.1166 13.733 35.6393 13.6179L34.2139 13.2599C33.1102 12.9915 32.2388 12.5717 31.5996 12.0007C30.9603 11.4297 30.6429 10.6605 30.6471 9.69318C30.6429 8.90057 30.8538 8.2081 31.28 7.61577C31.7103 7.02344 32.3005 6.56108 33.0505 6.22869C33.8005 5.89631 34.6528 5.73011 35.6074 5.73011C36.579 5.73011 37.427 5.89631 38.1514 6.22869C38.8801 6.56108 39.4469 7.02344 39.8517 7.61577C40.2565 8.2081 40.4653 8.89418 40.4781 9.67401H37.8254ZM46.9037 19.1918C45.9108 19.1918 45.0521 18.9808 44.3277 18.5589C43.6075 18.1328 43.0514 17.5405 42.6594 16.782C42.2673 16.0192 42.0713 15.1349 42.0713 14.1293C42.0713 13.1151 42.2673 12.2287 42.6594 11.4702C43.0514 10.7074 43.6075 10.1151 44.3277 9.69318C45.0521 9.26705 45.9108 9.05398 46.9037 9.05398C47.8966 9.05398 48.7531 9.26705 49.4733 9.69318C50.1977 10.1151 50.756 10.7074 51.148 11.4702C51.5401 12.2287 51.7361 13.1151 51.7361 14.1293C51.7361 15.1349 51.5401 16.0192 51.148 16.782C50.756 17.5405 50.1977 18.1328 49.4733 18.5589C48.7531 18.9808 47.8966 19.1918 46.9037 19.1918ZM46.9165 17.0824C47.3682 17.0824 47.7453 16.9545 48.0479 16.6989C48.3504 16.4389 48.5784 16.0852 48.7318 15.6378C48.8895 15.1903 48.9683 14.6811 48.9683 14.1101C48.9683 13.5391 48.8895 13.0298 48.7318 12.5824C48.5784 12.1349 48.3504 11.7812 48.0479 11.5213C47.7453 11.2614 47.3682 11.1314 46.9165 11.1314C46.4605 11.1314 46.077 11.2614 45.7659 11.5213C45.4591 11.7812 45.2269 12.1349 45.0692 12.5824C44.9158 13.0298 44.8391 13.5391 44.8391 14.1101C44.8391 14.6811 44.9158 15.1903 45.0692 15.6378C45.2269 16.0852 45.4591 16.4389 45.7659 16.6989C46.077 16.9545 46.4605 17.0824 46.9165 17.0824ZM57.9428 19.1918C56.9371 19.1918 56.072 18.9787 55.3476 18.5526C54.6274 18.1222 54.0735 17.5256 53.6857 16.7628C53.3021 16 53.1104 15.1222 53.1104 14.1293C53.1104 13.1236 53.3043 12.2415 53.6921 11.483C54.0841 10.7202 54.6402 10.1257 55.3604 9.69957C56.0806 9.26918 56.9371 9.05398 57.93 9.05398C58.7865 9.05398 59.5365 9.20952 60.18 9.5206C60.8235 9.83168 61.3327 10.2685 61.7077 10.831C62.0827 11.3935 62.2894 12.054 62.3277 12.8125H59.7581C59.6857 12.3224 59.4939 11.9283 59.1828 11.63C58.876 11.3274 58.4733 11.1761 57.9747 11.1761C57.5529 11.1761 57.1842 11.2912 56.8689 11.5213C56.5578 11.7472 56.3149 12.0774 56.1402 12.5121C55.9655 12.9467 55.8781 13.473 55.8781 14.0909C55.8781 14.7173 55.9634 15.25 56.1338 15.6889C56.3085 16.1278 56.5536 16.4624 56.8689 16.6925C57.1842 16.9226 57.5529 17.0376 57.9747 17.0376C58.2858 17.0376 58.5649 16.9737 58.8121 16.8459C59.0635 16.718 59.2702 16.5327 59.4321 16.2898C59.5983 16.0426 59.707 15.7464 59.7581 15.4013H62.3277C62.2851 16.1513 62.0806 16.8118 61.7141 17.3828C61.3519 17.9496 60.8512 18.3928 60.2119 18.7124C59.5727 19.032 58.8164 19.1918 57.9428 19.1918ZM64.0711 19V9.18182H66.7942V19H64.0711ZM65.439 7.91619C65.0342 7.91619 64.6869 7.78196 64.3971 7.51349C64.1116 7.24077 63.9689 6.91477 63.9689 6.53551C63.9689 6.16051 64.1116 5.83878 64.3971 5.57031C64.6869 5.29758 65.0342 5.16122 65.439 5.16122C65.8439 5.16122 66.189 5.29758 66.4746 5.57031C66.7643 5.83878 66.9092 6.16051 66.9092 6.53551C66.9092 6.91477 66.7643 7.24077 66.4746 7.51349C66.189 7.78196 65.8439 7.91619 65.439 7.91619ZM71.7752 19.1854C71.1487 19.1854 70.5905 19.0767 70.1004 18.8594C69.6104 18.6378 69.2226 18.3118 68.9371 17.8814C68.6558 17.4467 68.5152 16.9055 68.5152 16.2578C68.5152 15.7124 68.6154 15.2543 68.8156 14.8835C69.0159 14.5128 69.2887 14.2145 69.6338 13.9886C69.979 13.7628 70.371 13.5923 70.81 13.4773C71.2531 13.3622 71.7176 13.2812 72.2034 13.2344C72.7744 13.1747 73.2347 13.1193 73.5841 13.0682C73.9335 13.0128 74.1871 12.9318 74.3448 12.8253C74.5024 12.7187 74.5813 12.5611 74.5813 12.3523V12.3139C74.5813 11.9091 74.4534 11.5959 74.1977 11.3743C73.9463 11.1527 73.5884 11.0419 73.1239 11.0419C72.6338 11.0419 72.2439 11.1506 71.9541 11.3679C71.6644 11.581 71.4726 11.8494 71.3789 12.1733L68.8604 11.9688C68.9882 11.3722 69.2396 10.8565 69.6146 10.4219C69.9896 9.98295 70.4733 9.64631 71.0656 9.41193C71.6622 9.1733 72.3526 9.05398 73.1367 9.05398C73.6821 9.05398 74.2041 9.1179 74.7027 9.24574C75.2056 9.37358 75.6509 9.57173 76.0387 9.8402C76.4307 10.1087 76.7396 10.4538 76.9655 10.8757C77.1914 11.2933 77.3043 11.794 77.3043 12.3778V19H74.7219V17.6385H74.6452C74.4875 17.9453 74.2766 18.2159 74.0124 18.4503C73.7482 18.6804 73.4307 18.8615 73.06 18.9936C72.6892 19.1214 72.261 19.1854 71.7752 19.1854ZM72.555 17.3061C72.9556 17.3061 73.3092 17.2273 73.6161 17.0696C73.9229 16.9077 74.1637 16.6903 74.3384 16.4176C74.5131 16.1449 74.6004 15.8359 74.6004 15.4908V14.4489C74.5152 14.5043 74.398 14.5554 74.2489 14.6023C74.104 14.6449 73.9399 14.6854 73.7567 14.7237C73.5735 14.7578 73.3902 14.7898 73.207 14.8196C73.0237 14.8452 72.8575 14.8686 72.7084 14.8899C72.3888 14.9368 72.1097 15.0114 71.871 15.1136C71.6324 15.2159 71.447 15.3544 71.3149 15.5291C71.1828 15.6996 71.1168 15.9126 71.1168 16.1683C71.1168 16.5391 71.251 16.8224 71.5195 17.0185C71.7922 17.2102 72.1374 17.3061 72.555 17.3061ZM82.1399 5.90909V19H79.4168V5.90909H82.1399Z" fill="white"/>
</svg>
