<svg width="12" height="16" viewBox="0 0 12 16" fill="none" xmlns="http://www.w3.org/2000/svg">
<path d="M2.44429 15.1794H9.55571C10.942 15.1794 11.6317 14.4763 11.6317 13.0834V7.00312C11.6317 6.13912 11.538 5.76427 11.0023 5.21512L7.30572 1.45855C6.79714 0.93598 6.38171 0.822266 5.62514 0.822266H2.44429C1.06486 0.822266 0.368286 1.53198 0.368286 2.92512V13.0834C0.368286 14.4828 1.06486 15.1794 2.44429 15.1794ZM2.49771 14.1014C1.808 14.1014 1.44629 13.7328 1.44629 13.0634V2.94512C1.44629 2.28227 1.808 1.90027 2.50457 1.90027H5.47772V5.79112C5.47772 6.63484 5.90629 7.04998 6.73657 7.04998H10.5537V13.0634C10.5537 13.7328 10.1986 14.1014 9.50229 14.1014H2.49771ZM6.85714 6.03855C6.596 6.03855 6.48857 5.93169 6.48857 5.66369V2.10798L10.3457 6.03884L6.85714 6.03855ZM8.46429 8.89141H3.38143C3.14057 8.89141 2.96657 9.07227 2.96657 9.29998C2.96657 9.53427 3.14086 9.71512 3.38172 9.71512H8.46429C8.51905 9.71601 8.57343 9.70588 8.6242 9.68533C8.67497 9.66478 8.72109 9.63424 8.75982 9.59551C8.79854 9.55678 8.82909 9.51066 8.84964 9.45989C8.87019 9.40912 8.88032 9.35474 8.87943 9.29998C8.87943 9.07227 8.69857 8.89141 8.46429 8.89141ZM8.46429 11.2286H3.38143C3.14057 11.2286 2.96657 11.416 2.96657 11.6503C2.96657 11.878 3.14086 12.0523 3.38172 12.0523H8.46429C8.69857 12.0523 8.87943 11.878 8.87943 11.6503C8.87943 11.416 8.69857 11.2286 8.46429 11.2286Z" fill="white"/>
</svg>
