<svg width="14" height="14" viewBox="0 0 14 14" fill="none" xmlns="http://www.w3.org/2000/svg">
<path fill-rule="evenodd" clip-rule="evenodd" d="M5.37222 13.3051C2.92422 13.3051 0.832886 12.9351 0.832886 11.4525C0.832886 9.96979 2.91089 8.63379 5.37222 8.63379C7.82021 8.63379 9.91088 9.95712 9.91088 11.4391C9.91088 12.9211 7.83355 13.3051 5.37222 13.3051Z" stroke="white" stroke-linecap="round" stroke-linejoin="round"/>
<path fill-rule="evenodd" clip-rule="evenodd" d="M5.37231 6.51987C6.97897 6.51987 8.28163 5.21717 8.28163 3.6105C8.28163 2.00384 6.97897 0.701172 5.37231 0.701172C3.76564 0.701172 2.46297 2.00384 2.46297 3.6105C2.45697 5.21184 3.75097 6.51453 5.35164 6.51987H5.37231Z" stroke="white" stroke-linecap="round" stroke-linejoin="round"/>
<path d="M10.2009 5.71878C11.1362 5.46877 11.8256 4.6161 11.8256 3.60144C11.8262 2.54277 11.0749 1.65877 10.0762 1.4541" stroke="white" stroke-linecap="round" stroke-linejoin="round"/>
<path d="M10.6407 8.10449C11.966 8.10449 13.098 9.00316 13.098 9.80516C13.098 10.2778 12.708 10.7632 12.1147 10.9025" stroke="white" stroke-linecap="round" stroke-linejoin="round"/>
</svg>
