<svg width="16" height="16" viewBox="0 0 16 16" fill="none" xmlns="http://www.w3.org/2000/svg">
<path d="M2.06183 6.26953H13.9444" stroke="#A7A7A7" stroke-linecap="round" stroke-linejoin="round"/>
<path d="M10.9614 8.87305H10.9675" stroke="#A7A7A7" stroke-linecap="round" stroke-linejoin="round"/>
<path d="M8.00299 8.87305H8.00912" stroke="#A7A7A7" stroke-linecap="round" stroke-linejoin="round"/>
<path d="M5.03851 8.87305H5.04469" stroke="#A7A7A7" stroke-linecap="round" stroke-linejoin="round"/>
<path d="M10.9614 11.4648H10.9675" stroke="#A7A7A7" stroke-linecap="round" stroke-linejoin="round"/>
<path d="M8.00299 11.4648H8.00912" stroke="#A7A7A7" stroke-linecap="round" stroke-linejoin="round"/>
<path d="M5.03851 11.4648H5.04469" stroke="#A7A7A7" stroke-linecap="round" stroke-linejoin="round"/>
<path d="M10.6959 1.33398V3.52784" stroke="#A7A7A7" stroke-linecap="round" stroke-linejoin="round"/>
<path d="M5.31049 1.33398V3.52784" stroke="#A7A7A7" stroke-linecap="round" stroke-linejoin="round"/>
<path d="M3.66667 2.66016C2.61333 3.10027 2 4.06155 2 5.48131V11.5144C2 13.5506 3.22285 14.6665 5.18064 14.6665H8" stroke="#A7A7A7" stroke-linecap="round" stroke-linejoin="round"/>
<path d="M10.8255 2.38672C12.7894 2.38672 14.0061 3.47735 14 5.48207V11.5656C14 13.5703 12.7833 14.6673 10.8193 14.6673H10.3333" stroke="#A7A7A7" stroke-linecap="round" stroke-linejoin="round"/>
<path d="M5.33331 2.38672H8.00305H8.99998" stroke="#A7A7A7" stroke-linecap="round" stroke-linejoin="round"/>
</svg>
